<svg width="158" height="159" viewBox="0 0 158 159" version="1.1" xmlns="http://www.w3.org/2000/svg" xmlns:xlink="http://www.w3.org/1999/xlink">
<g id="Canvas" fill="none">
<g id="Group" filter="url(#filter0_d)">
<g id="Ellipse" transform="translate(4 0)">
<circle cx="75" cy="75" r="75" fill="url(#paint0_linear)"/>
<circle cx="75" cy="75" r="74" stroke-width="2" stroke="#F2F2F2"/>
</g>
<g id="noun_1378857_cc">
<path id="Vector" d="M 40.8201 0L 39.9001 0C 32.678 0.0079407 25.754 2.88041 20.6473 7.98718C 15.5405 13.094 12.668 20.0179 12.6601 27.24L 12.6601 38.8C 10.7801 39.09 8.90007 39.41 7.03007 39.8L 6.54007 39.89C 4.69718 40.2321 3.0329 41.2103 1.83764 42.6542C 0.642377 44.098 -0.0079715 45.9156 7.41075e-05 47.79L 7.41075e-05 85.61C -0.00562489 87.4826 0.645791 89.2979 1.84085 90.7397C 3.03591 92.1814 4.69888 93.1583 6.54007 93.5L 9.91007 94.14C 19.949 96.0386 30.1432 96.9961 40.3601 97C 50.5766 96.9994 60.7708 96.0453 70.8101 94.15L 74.1801 93.5C 76.023 93.1579 77.6873 92.1797 78.8825 90.7358C 80.0778 89.292 80.7281 87.4743 80.7201 85.6L 80.7201 47.75C 80.7281 45.8756 80.0778 44.058 78.8825 42.6142C 77.6873 41.1703 76.023 40.1921 74.1801 39.85L 74.1801 39.85L 73.6901 39.76C 71.8201 39.41 69.9401 39.09 68.0601 38.76L 68.0601 27.24C 68.0521 20.0179 65.1797 13.094 60.0729 7.98718C 54.9661 2.88041 48.0421 0.0079407 40.8201 0L 40.8201 0ZM 17.6601 27.24C 17.6654 21.3432 20.0102 15.6895 24.1799 11.5198C 28.3495 7.35013 34.0033 5.0053 39.9001 5L 40.8201 5C 46.7169 5.0053 52.3706 7.35013 56.5403 11.5198C 60.7099 15.6895 63.0548 21.3432 63.0601 27.24L 63.0601 38.1C 61.0601 37.84 58.9601 37.61 56.9101 37.42L 56.9101 27.25C 56.9048 22.9816 55.2068 18.8896 52.1886 15.8714C 49.1705 12.8532 45.0784 11.1553 40.8101 11.15L 39.9201 11.15C 35.6517 11.1553 31.5597 12.8532 28.5415 15.8714C 25.5233 18.8896 23.8254 22.9816 23.8201 27.25L 23.8201 37.41C 21.7601 37.6 19.7101 37.83 17.6701 38.09L 17.6601 27.24ZM 51.9001 37.03C 44.2113 36.5381 36.4989 36.5381 28.8101 37.03L 28.8101 27.25C 28.8127 24.3069 29.983 21.4851 32.0641 19.404C 34.1452 17.323 36.967 16.1526 39.9101 16.15L 40.8001 16.15C 43.7432 16.1526 46.565 17.323 48.646 19.404C 50.7271 21.4851 51.8974 24.3069 51.9001 27.25L 51.9001 37.03ZM 73.2401 44.77C 73.9408 44.8957 74.574 45.2664 75.0265 45.816C 75.4789 46.3656 75.7213 47.0582 75.7101 47.77L 75.7101 85.61C 75.7213 86.3218 75.4789 87.0144 75.0265 87.564C 74.574 88.1136 73.9408 88.4843 73.2401 88.61L 69.8701 89.25C 50.3745 92.9186 30.3657 92.9186 10.8701 89.25L 7.50007 88.61C 6.79936 88.4843 6.16618 88.1136 5.71369 87.564C 5.2612 87.0144 5.01889 86.3218 5.03007 85.61L 5.03007 47.75C 5.01889 47.0382 5.2612 46.3456 5.71369 45.796C 6.16618 45.2464 6.79936 44.8757 7.50007 44.75L 7.99007 44.66C 29.4001 40.6086 51.3801 40.6086 72.7901 44.66L 73.2401 44.77Z" transform="translate(39 26)" fill="white"/>
<path id="Vector_2" d="M 0.141801 16.3544C -0.0472673 16.8915 -0.0472673 17.4772 0.141801 18.0144C 1.82253 22.7952 4.94614 26.9363 9.08129 29.8658C 13.2164 32.7953 18.1591 34.3687 23.2268 34.3687C 28.2945 34.3687 33.2372 32.7953 37.3723 29.8658C 41.5075 26.9363 44.6311 22.7952 46.3118 18.0144C 46.5009 17.4772 46.5009 16.8915 46.3118 16.3544C 44.6311 11.5735 41.5075 7.4324 37.3723 4.50289C 33.2372 1.57339 28.2945 -8.38465e-07 23.2268 -8.38465e-07C 18.1591 -8.38465e-07 13.2164 1.57339 9.08129 4.50289C 4.94614 7.4324 1.82253 11.5735 0.141801 16.3544L 0.141801 16.3544ZM 41.2918 17.1844C 39.8937 20.8215 37.4112 23.9408 34.1806 26.1195C 30.9501 28.2982 27.1278 29.431 23.2318 29.3644C 19.3358 29.431 15.5135 28.2982 12.283 26.1195C 9.05245 23.9408 6.56989 20.8215 5.1718 17.1844C 6.56827 13.5454 9.05013 10.4239 12.2808 8.24331C 15.5115 6.0627 19.3346 4.92844 23.2318 4.99436C 27.129 4.92844 30.9521 6.0627 34.1828 8.24331C 37.4135 10.4239 39.8953 13.5454 41.2918 17.1844L 41.2918 17.1844Z" transform="translate(56.1283 75.6356)" fill="white"/>
<path id="Vector_3" d="M 4.35761e-06 8.1C 0.00530012 10.2395 0.858922 12.2895 2.37364 13.8005C 3.88836 15.3115 5.94052 16.16 8.08001 16.16L 8.08001 16.16C 10.223 16.16 12.2781 15.3087 13.7934 13.7934C 15.3087 12.2781 16.16 10.2229 16.16 8.08C 16.16 5.93705 15.3087 3.88187 13.7934 2.36658C 12.2781 0.851285 10.223 1.74233e-06 8.08001 1.67847e-06L 8.08001 1.67847e-06C 7.01761 0.00131409 5.96588 0.211865 4.98486 0.619638C 4.00383 1.02741 3.11274 1.62442 2.36244 2.37658C 1.61214 3.12873 1.01734 4.02131 0.611992 5.00333C 0.206645 5.98536 -0.00130967 7.0376 4.35761e-06 8.1L 4.35761e-06 8.1ZM 8.08001 5C 8.89687 5 9.68029 5.3245 10.2579 5.90211C 10.8355 6.47973 11.16 7.26313 11.16 8.08C 11.16 8.89687 10.8355 9.68027 10.2579 10.2579C 9.68029 10.8355 8.89687 11.16 8.08001 11.16C 7.26357 11.1568 6.48093 10.8337 5.90001 10.26C 5.46841 9.82924 5.17438 9.28005 5.05519 8.68204C 4.936 8.08402 4.997 7.46408 5.23047 6.90076C 5.46393 6.33745 5.85936 5.85611 6.36664 5.51773C 6.87392 5.17935 7.47023 4.99916 8.08001 5L 8.08001 5Z" transform="translate(71.2801 84.74)" fill="white"/>
</g>
</g>
</g>
<defs>
<filter id="filter0_d" x="0" y="0" width="158" height="159" filterUnits="userSpaceOnUse" color-interpolation-filters="sRGB">
<feFlood flood-opacity="0" result="BackgroundImageFix"/>
<feColorMatrix in="SourceAlpha" type="matrix" values="0 0 0 0 0 0 0 0 0 0 0 0 0 0 0 0 0 0 255 0"/>
<feOffset dy="5"/>
<feGaussianBlur stdDeviation="2"/>
<feColorMatrix type="matrix" values="0 0 0 0 0.215686 0 0 0 0 0.576471 0 0 0 0 0.533333 0 0 0 0.5 0"/>
<feBlend mode="normal" in2="BackgroundImageFix" result="effect1_dropShadow"/>
<feBlend mode="normal" in="SourceGraphic" in2="effect1_dropShadow" result="shape"/>
</filter>
<linearGradient id="paint0_linear" x2="1" gradientUnits="userSpaceOnUse" gradientTransform="matrix(0 124.375 -124.375 0 137.188 25.625)">
<stop stop-color="#4AC2C8"/>
<stop offset="1" stop-color="#352265"/>
</linearGradient>
</defs>
</svg>
