<svg width="158" height="162" viewBox="0 0 158 162" version="1.1" xmlns="http://www.w3.org/2000/svg" xmlns:xlink="http://www.w3.org/1999/xlink">
<g id="Canvas" fill="none">
<g id="Group" filter="url(#filter0_d)">
<g id="Ellipse" transform="translate(4 0)">
<ellipse cx="75" cy="76.0297" rx="75" ry="76.0297" fill="url(#paint0_linear)"/>
<path d="M 149 76.0297C 149 117.48 115.856 151.059 75 151.059C 34.1437 151.059 1 117.48 1 76.0297C 1 34.5791 34.1437 1 75 1C 115.856 1 149 34.5791 149 76.0297Z" stroke-width="2" stroke="#F2F2F2"/>
</g>
<g id="noun_1377818_cc">
<path id="Vector" d="M 80.5053 0L 40.9139 0C 38.9269 0.0024301 37.022 0.790753 35.617 2.19206C 34.212 3.59337 33.4216 5.49325 33.4191 7.475L 33.4191 30.1204C 33.2844 30.1085 33.1488 30.1085 33.014 30.1204C 29.7552 30.8305 26.5776 31.8705 23.5305 33.2243C 20.9069 34.3694 18.3467 35.6538 15.8608 37.072C 13.3856 38.4711 11.2541 40.4029 9.6216 42.7269C 7.98907 45.0509 6.89649 47.7086 6.42335 50.5068L 0.0334866 87.3032C -0.017901 87.6005 -0.0100804 87.905 0.0565016 88.1992C 0.123084 88.4935 0.247123 88.7717 0.421539 89.0182C 0.595954 89.2646 0.817329 89.4744 1.07302 89.6355C 1.32872 89.7966 1.61373 89.9059 1.91178 89.9571C 2.20982 90.0084 2.51507 90.0006 2.8101 89.9342C 3.10513 89.8678 3.38415 89.7441 3.63124 89.5701C 3.87832 89.3962 4.08864 89.1754 4.25017 88.9203C 4.41171 88.6653 4.5213 88.3811 4.57268 88.0838L 10.9718 51.269C 11.3409 49.1504 12.1775 47.1401 13.4211 45.3836C 14.6648 43.627 16.2843 42.1682 18.1627 41.1125C 20.5042 39.7598 22.9169 38.5336 25.3904 37.4393C 27.985 36.2893 30.6823 35.3854 33.4468 34.7395L 33.4468 50.5986C 32.7691 50.3003 32.0706 50.0517 31.3567 49.8548C 31.0595 49.7613 30.7464 49.729 30.4363 49.7599C 30.1262 49.7907 29.8256 49.884 29.5527 50.0342C 29.2799 50.1843 29.0404 50.3881 28.8489 50.6333C 28.6573 50.8785 28.5177 51.1599 28.4385 51.4605C 28.3592 51.7611 28.342 52.0746 28.3879 52.382C 28.4337 52.6895 28.5417 52.9844 28.7052 53.249C 28.8687 53.5136 29.0844 53.7423 29.3392 53.9213C 29.594 54.1002 29.8825 54.2257 30.1874 54.2902C 31.381 54.5916 32.5018 55.1287 33.4836 55.8697C 33.4836 55.9248 33.4836 55.9799 33.4836 56.035C 32.0602 58.204 30.2201 60.0704 28.0697 61.5264C 27.8055 61.6895 27.5771 61.9042 27.3983 62.1576C 27.2195 62.411 27.094 62.6979 27.0294 63.0009C 26.9647 63.304 26.9623 63.617 27.0221 63.9211C 27.082 64.2251 27.2029 64.514 27.3777 64.7702C 27.5525 65.0263 27.7774 65.2446 28.039 65.4118C 28.3006 65.5789 28.5935 65.6915 28.8998 65.7428C 29.2062 65.7941 29.5199 65.783 29.8219 65.7102C 30.1238 65.6373 30.4079 65.5043 30.657 65.319C 33.4236 63.4431 35.7715 61.017 37.5532 58.193L 45.1124 46.255C 45.6936 45.332 46.6186 44.677 47.684 44.4342C 48.7494 44.1913 49.8678 44.3806 50.7933 44.9602C 51.7188 45.5399 52.3755 46.4624 52.619 47.525C 52.8624 48.5876 52.6727 49.7031 52.0915 50.6261L 46.4106 59.7816C 44.1242 63.402 42.9643 67.6168 43.0776 71.8941C 43.1582 74.5738 42.609 77.2351 41.4739 79.6652C 40.3388 82.0953 38.6492 84.2267 36.5404 85.8891C 36.3022 86.076 36.1033 86.3079 35.9549 86.5715C 35.8066 86.8351 35.7117 87.1252 35.6758 87.4254C 35.6399 87.7256 35.6636 88.0298 35.7456 88.3208C 35.8276 88.6119 35.9663 88.8839 36.1537 89.1215C 36.3411 89.3591 36.5736 89.5575 36.8379 89.7054C 37.1022 89.8534 37.3932 89.948 37.6941 89.9838C 37.9951 90.0196 38.3001 89.9959 38.5919 89.9142C 38.8837 89.8324 39.1565 89.6941 39.3947 89.5072C 42.3578 87.1868 44.6672 84.1399 46.0976 80.6639L 46.6961 81.27C 47.5861 82.1717 48.6958 82.8271 49.9164 83.1721C 51.137 83.5171 52.4265 83.5398 53.6585 83.2379C 54.8906 82.9361 56.0228 82.32 56.9441 81.4502C 57.8655 80.5804 58.5443 79.4867 58.9141 78.2763C 60.1521 78.5599 61.4437 78.507 62.6542 78.1231C 63.8647 77.7393 64.9497 77.0385 65.7962 76.0939C 66.6426 75.1493 67.2194 73.9956 67.4665 72.7529C 67.7135 71.5102 67.6218 70.2242 67.2007 69.029L 67.0166 68.68L 80.5053 68.68C 82.4922 68.6776 84.3971 67.8893 85.8021 66.488C 87.2072 65.0866 87.9976 63.1868 88 61.205L 88 7.475C 87.9976 5.49325 87.2072 3.59337 85.8021 2.19206C 84.3971 0.790753 82.4922 0.0024301 80.5053 0L 80.5053 0ZM 53.6292 78.2579C 53.0982 78.6828 52.4286 78.8972 51.7489 78.8599C 51.0692 78.8226 50.4273 78.5363 49.9462 78.0559L 47.4971 75.5581C 47.6703 74.3018 47.7319 73.0327 47.6812 71.7655C 47.6555 70.733 47.7233 69.7003 47.8838 68.68L 50.4803 68.68C 50.4803 68.7259 50.4803 68.781 50.5539 68.8269L 54.1816 74.7041C 54.5316 75.2642 54.6684 75.9311 54.567 76.5833C 54.4656 77.2356 54.1328 77.8298 53.6292 78.2579L 53.6292 78.2579ZM 62.8365 70.5625C 63.0325 71.1384 63.0103 71.766 62.774 72.3267C 62.5378 72.8874 62.1039 73.3424 61.5542 73.6057C 61.0046 73.8691 60.3772 73.9226 59.7907 73.7561C 59.2042 73.5897 58.6992 73.2147 58.3709 72.7022L 58.3709 72.7022C 58.2973 72.5736 58.2328 72.4451 58.1591 72.3165L 55.931 68.7076L 62.1919 68.7076L 62.8365 70.5625ZM 83.3964 61.2142C 83.3964 61.979 83.0918 62.7124 82.5496 63.2531C 82.0074 63.7939 81.272 64.0977 80.5053 64.0977L 49.3017 64.0977C 49.5998 63.4498 49.9381 62.8211 50.3145 62.2152L 55.9678 53.0964C 57.0173 51.1545 57.2884 48.8876 56.7264 46.754C 56.1644 44.6203 54.8111 42.7791 52.9402 41.6024C 51.0693 40.4256 48.8203 40.0012 46.6477 40.4148C 44.475 40.8285 42.5409 42.0494 41.2361 43.8307L 38.0412 48.8538L 38.0412 7.475C 38.0412 6.71026 38.3458 5.97683 38.888 5.43608C 39.4302 4.89532 40.1655 4.59152 40.9323 4.59152L 80.5237 4.59152C 81.2904 4.59152 82.0258 4.89532 82.568 5.43608C 83.1102 5.97683 83.4148 6.71026 83.4148 7.475L 83.3964 61.2142Z" transform="translate(35 31)" fill="white"/>
<path id="Vector_2" d="M 21.1768 25.3454C 21.1768 25.9543 21.4193 26.5382 21.851 26.9687C 22.2826 27.3993 22.8681 27.6411 23.4786 27.6411C 24.0891 27.6411 24.6746 27.3993 25.1062 26.9687C 25.5379 26.5382 25.7804 25.9543 25.7804 25.3454C 25.7774 23.0808 25.1746 20.8572 24.0332 18.8995C 22.8917 16.9419 21.252 15.3197 19.2801 14.1972C 20.3752 12.9678 21.0906 11.449 21.3404 9.82356C 21.5902 8.19811 21.3637 6.5353 20.6881 5.03527C 20.0125 3.53524 18.9166 2.26192 17.5323 1.3686C 16.148 0.475268 14.5344 1.33583e-08 12.8856 1.33583e-08C 11.2368 1.33583e-08 9.6232 0.475268 8.23893 1.3686C 6.85466 2.26192 5.75876 3.53524 5.08314 5.03527C 4.40752 6.5353 4.18097 8.19811 4.43077 9.82356C 4.68057 11.449 5.39607 12.9678 6.49114 14.1972C 4.5209 15.3209 2.88308 16.9436 1.74328 18.9011C 0.603483 20.8587 0.00212234 23.0817 2.80984e-07 25.3454C 2.80984e-07 25.9543 0.242511 26.5382 0.674187 26.9687C 1.10586 27.3993 1.69134 27.6411 2.30182 27.6411C 2.91231 27.6411 3.49778 27.3993 3.92946 26.9687C 4.36113 26.5382 4.60365 25.9543 4.60365 25.3454C 4.60365 23.1534 5.4767 21.0513 7.03073 19.5013C 8.58476 17.9514 10.6925 17.0806 12.8902 17.0806C 15.088 17.0806 17.1957 17.9514 18.7497 19.5013C 20.3037 21.0513 21.1768 23.1534 21.1768 25.3454L 21.1768 25.3454ZM 8.94028 8.5404C 8.94028 7.76123 9.17195 6.99957 9.60597 6.35171C 10.04 5.70386 10.6569 5.19892 11.3786 4.90075C 12.1004 4.60257 12.8946 4.52456 13.6608 4.67657C 14.427 4.82857 15.1308 5.20378 15.6832 5.75473C 16.2356 6.30568 16.6118 7.00764 16.7642 7.77183C 16.9167 8.53603 16.8384 9.32814 16.5395 10.048C 16.2405 10.7678 15.7342 11.3831 15.0847 11.816C 14.4351 12.2489 13.6714 12.4799 12.8902 12.4799C 11.8434 12.4775 10.8401 12.0617 10.0999 11.3234C 9.35965 10.5851 8.94272 9.58448 8.94028 8.5404L 8.94028 8.5404Z" transform="translate(82.6168 39.9992)" fill="white"/>
<path id="Vector_3" d="M 13.2585 0L 2.30182 0C 1.69134 0 1.10586 0.241872 0.674187 0.672411C 0.242511 1.10295 0 1.68689 0 2.29576C 0 2.90464 0.242511 3.48857 0.674187 3.91911C 1.10586 4.34965 1.69134 4.59152 2.30182 4.59152L 13.2585 4.59152C 13.869 4.59152 14.4545 4.34965 14.8861 3.91911C 15.3178 3.48857 15.5603 2.90464 15.5603 2.29576C 15.5603 1.68689 15.3178 1.10295 14.8861 0.672411C 14.4545 0.241872 13.869 0 13.2585 0Z" transform="translate(96.9526 73.7012)" fill="white"/>
<path id="Vector_4" d="M 13.2585 7.00611e-07L 2.30182 7.00611e-07C 1.69134 7.00611e-07 1.10586 0.241873 0.674187 0.672412C 0.242511 1.10295 0 1.68689 0 2.29576C 0 2.90464 0.242511 3.48857 0.674187 3.91911C 1.10586 4.34965 1.69134 4.59152 2.30182 4.59152L 13.2585 4.59152C 13.869 4.59152 14.4545 4.34965 14.8861 3.91911C 15.3178 3.48857 15.5603 2.90464 15.5603 2.29576C 15.5603 1.68689 15.3178 1.10295 14.8861 0.672412C 14.4545 0.241873 13.869 7.00611e-07 13.2585 7.00611e-07Z" transform="translate(96.9526 83.0679)" fill="white"/>
</g>
</g>
</g>
<defs>
<filter id="filter0_d" x="0" y="0" width="158" height="161.059" filterUnits="userSpaceOnUse" color-interpolation-filters="sRGB">
<feFlood flood-opacity="0" result="BackgroundImageFix"/>
<feColorMatrix in="SourceAlpha" type="matrix" values="0 0 0 0 0 0 0 0 0 0 0 0 0 0 0 0 0 0 255 0"/>
<feOffset dy="5"/>
<feGaussianBlur stdDeviation="2"/>
<feColorMatrix type="matrix" values="0 0 0 0 0.215686 0 0 0 0 0.576471 0 0 0 0 0.533333 0 0 0 0.5 0"/>
<feBlend mode="normal" in2="BackgroundImageFix" result="effect1_dropShadow"/>
<feBlend mode="normal" in="SourceGraphic" in2="effect1_dropShadow" result="shape"/>
</filter>
<linearGradient id="paint0_linear" x2="1" gradientUnits="userSpaceOnUse" gradientTransform="matrix(0 126.083 -124.375 0 137.188 25.9768)">
<stop stop-color="#4AC2C8"/>
<stop offset="1" stop-color="#352265"/>
</linearGradient>
</defs>
</svg>
