<svg width="158" height="162" viewBox="0 0 158 162" version="1.1" xmlns="http://www.w3.org/2000/svg" xmlns:xlink="http://www.w3.org/1999/xlink">
<g id="Canvas" fill="none">
<g id="Group" filter="url(#filter0_d)">
<g id="Ellipse" transform="translate(4 0)">
<ellipse cx="75" cy="76.0297" rx="75" ry="76.0297" fill="url(#paint0_linear)"/>
<path d="M 149 76.0297C 149 117.48 115.856 151.059 75 151.059C 34.1437 151.059 1 117.48 1 76.0297C 1 34.5791 34.1437 1 75 1C 115.856 1 149 34.5791 149 76.0297Z" stroke-width="2" stroke="#F2F2F2"/>
</g>
<g id="noun_1287873_cc">
<path id="Vector" d="M 0 20.2C 0 14.1 0 8 0 1.9L 0 1.8C 0.1 1.3 0.3 0.9 0.6 0.5C 0.9 0.2 1.2 0.1 1.5 0C 6.5 0 11.5 0 16.4 0C 16.7 0.1 17 0.200002 17.2 0.400002C 17.7 0.900002 17.9 1.5 17.9 2.2C 17.9 7.2 17.9 12.2 17.9 17.2C 17.9 18.1 17.9 18.9 17.9 19.8C 17.9 20.5 17.7 21.1 17.2 21.5C 17 21.9 16.6 22 16.2 22C 11.5 22 6.8 22 2.1 22C 2 22 1.9 22 1.8 22C 1.2 22 0.8 21.7 0.4 21.2C 0.2 20.9 0.1 20.5 0 20.2ZM 16.9 11C 16.9 8.1 16.9 5.1 16.9 2.2C 16.9 1.6 16.7 1.4 16.2 1.4C 11.4 1.4 6.6 1.4 1.9 1.4C 1.4 1.4 1.2 1.6 1.2 2.2C 1.2 8.1 1.2 13.9 1.2 19.8C 1.2 20.4 1.4 20.6 1.9 20.6C 6.7 20.6 11.5 20.6 16.2 20.6C 16.7 20.6 16.9 20.4 16.9 19.8C 16.9 16.9 16.9 13.9 16.9 11Z" transform="translate(34 96.4)" fill="white"/>
<path id="Vector_2" d="M 11.2 -1.52588e-06C 11.2 0.499998 11.2 0.900001 11.2 1.3C 7.5 1.3 3.7 1.3 -3.8147e-07 1.3C -3.8147e-07 0.900001 -3.8147e-07 0.399998 -3.8147e-07 -1.52588e-06C 3.8 -1.52588e-06 7.5 -1.52588e-06 11.2 -1.52588e-06Z" transform="translate(37.4 101)" fill="white"/>
<path id="Vector_3" d="M 7.1 0.0999969C 7.1 0.499997 7.1 0.900001 7.1 1.3L 7 1.4L 6.9 1.4C 4.7 1.4 2.4 1.4 0.2 1.4C 0.1 1.4 0.0999996 1.4 -3.8147e-07 1.4C -3.8147e-07 0.9 -3.8147e-07 0.499998 -3.8147e-07 -1.52588e-06C 2.4 0.0999985 4.7 0.0999969 7.1 0.0999969Z" transform="translate(37.4 107)" fill="white"/>
<path id="Vector_4" d="M 8.39183 59.3302L 10.3918 56.2302C 15.2918 58.2302 20.8918 57.7302 25.3918 54.8302L 33.8918 65.8302C 31.8918 69.1302 33.3918 73.6302 37.3918 74.8302C 38.8918 75.2302 40.4918 75.1302 41.8918 74.3302C 44.5918 72.8302 45.5918 69.7302 44.6918 67.0302L 44.7918 67.0302L 64.0918 56.7302C 64.1918 56.6302 64.2918 56.6302 64.2918 56.5302C 68.7918 61.3302 76.6918 61.0302 80.6918 55.3302C 82.2918 53.1302 82.8918 50.1302 82.2918 47.3302C 81.2918 42.8302 77.6918 39.7302 73.5918 39.1302L 73.5918 22.8302C 72.6918 22.8302 71.5918 22.8302 70.5918 22.8302L 70.5918 39.1302C 69.7918 39.2302 68.8918 39.4302 68.0918 39.8302C 68.0918 39.7302 68.0918 39.7302 67.9918 39.6302L 58.9918 26.3302C 58.9918 26.3302 58.8918 26.3302 58.8918 26.2302C 61.1918 23.8302 61.1918 20.0302 58.7918 17.7302C 56.3918 15.4302 52.5918 15.4302 50.2918 17.8302C 49.9918 18.1302 49.7918 18.4302 49.5918 18.7302C 49.4918 18.6302 49.4918 18.6302 49.3918 18.5302L 16.4918 6.53019L 16.4918 6.23019C 16.4918 3.33019 14.5918 0.730187 11.6918 0.130187C 7.79183 -0.669813 4.49183 2.33019 4.49183 6.03019C 4.49183 9.33019 7.19183 12.0302 10.4918 12.0302L 13.4918 24.8302C 4.49183 26.5302 -1.40817 35.1302 0.291828 44.1302C 1.09183 48.6302 3.79183 52.5302 7.59183 54.9302L 5.99183 57.4302L 8.39183 59.3302ZM 51.6918 21.1302C 52.0918 19.9302 53.3918 19.1302 54.6918 19.1302C 55.6918 19.1302 56.5918 19.6302 57.0918 20.5302C 58.2918 22.8302 56.6918 25.1302 54.4918 25.1302C 52.5918 25.1302 50.9918 23.2302 51.6918 21.1302ZM 10.4918 9.03019C 8.79183 9.03019 7.49183 7.73019 7.49183 6.03019C 7.49183 4.33019 8.79183 3.03019 10.4918 3.03019C 12.1918 3.03019 13.4918 4.33019 13.4918 6.03019C 13.4918 7.73019 12.1918 9.03019 10.4918 9.03019ZM 13.0918 11.5302C 14.0918 11.0302 14.9918 10.3302 15.5918 9.43019L 48.4918 21.5302L 48.6918 21.5302L 48.6918 22.1302C 48.6918 22.4302 48.6918 22.8302 48.7918 23.1302L 30.9918 33.1302C 28.0918 27.9302 22.5918 24.6302 16.5918 24.6302L 13.5918 11.4302L 13.0918 11.5302ZM 18.7918 54.3302C 9.59183 55.8302 1.69183 47.9302 3.19183 38.7302C 4.09183 33.1302 8.59183 28.6302 14.1918 27.7302C 23.3918 26.2302 31.2918 34.1302 29.7918 43.3302C 28.8918 48.9302 24.3918 53.4302 18.7918 54.3302ZM 38.9918 72.0302C 37.2918 72.0302 35.9918 70.7302 35.9918 69.0302C 35.9918 67.3302 37.2918 66.0302 38.9918 66.0302C 40.6918 66.0302 41.9918 67.3302 41.9918 69.0302C 41.9918 70.7302 40.6918 72.0302 38.9918 72.0302ZM 43.3918 64.4302C 43.2918 64.5302 43.1918 64.5302 43.0918 64.6302C 41.1918 62.8302 38.2918 62.4302 35.9918 63.8302L 27.6918 53.1302C 29.9918 50.9302 31.6918 48.1302 32.4918 45.0302L 61.4918 49.6302C 61.4918 51.2302 61.8918 52.7302 62.5918 54.1302L 43.3918 64.4302ZM 61.8918 46.6302L 32.9918 42.0302L 32.9918 41.0302C 32.9918 39.2302 32.6918 37.4302 32.0918 35.7302L 49.7918 25.7302C 51.2918 27.7302 53.9918 28.5302 56.3918 27.6302C 56.3918 27.7302 56.4918 27.8302 56.4918 27.8302L 65.4918 41.2302C 63.7918 42.6302 62.4918 44.5302 61.8918 46.6302ZM 79.3918 50.7302C 78.8918 53.9302 76.2918 56.4302 73.1918 56.9302C 68.0918 57.7302 63.7918 53.4302 64.5918 48.3302C 65.0918 45.1302 67.6918 42.6302 70.7918 42.1302C 75.8918 41.3302 80.1918 45.6302 79.3918 50.7302Z" transform="translate(41.5082 32.7698)" fill="white"/>
<path id="Vector_5" d="M 19.4 5.37632C 16.8 2.87632 13.8 1.57632 10.2 1.57632C 6.7 1.57632 3.6 2.87632 1.1 5.37632C 0.7 4.97632 0.3 4.57632 0 4.27632C 5.2 -1.22368 14.7 -1.62368 20.5 4.27632C 20.2 4.57632 19.8 4.97632 19.4 5.37632Z" transform="translate(47.5 65.5237)" fill="white"/>
<path id="Vector_6" d="M 14.8 3.10179C 14.4 3.50179 14 3.80178 13.7 4.20178C 12 2.50178 9.9 1.60179 7.4 1.60179C 4.9 1.60179 2.8 2.50179 1.1 4.30179C 0.7 3.90179 0.4 3.50178 -3.8147e-07 3.20178C 3.7 -0.898216 10.7 -1.19822 14.8 3.10179Z" transform="translate(50.4 69.4982)" fill="white"/>
<path id="Vector_7" d="M 9.2 1.95288C 8.8 2.35288 8.4 2.65287 8.1 3.05287C 5.8 1.05287 3.4 1.05287 1.1 3.05287C 0.699999 2.65287 0.400001 2.35288 7.62939e-07 1.95288C 2.1 -0.447124 6.5 -0.847124 9.2 1.95288Z" transform="translate(53.2 73.4471)" fill="white"/>
<g id="Vector_8" transform="translate(102.9 32)">
<path d="M 19.8 0.0999998C 20 0.2 20.3 0.3 20.5 0.5C 20.7 0.7 20.8 1 20.8 1.2C 20.8 1.3 20.8 1.3 20.8 1.4C 20.8 5.5 20.8 9.7 20.8 13.8C 20.8 14.2 20.7 14.6 20.4 14.8C 20.2 15 20 15 19.8 15.1C 19.7 15.1 19.7 15.1 19.6 15.1C 13.5 15.1 7.3 15.1 1.2 15.1C 0.799998 15.1 0.399998 14.9 0.199998 14.6C 0.0999985 14.4 1.52588e-06 14.3 1.52588e-06 14.1C 1.52588e-06 9.8 1.52588e-06 5.4 1.52588e-06 1C 0.100002 0.8 0.199998 0.7 0.199998 0.5C 0.299998 0.3 0.600003 0.1 0.900003 3.8147e-07C 7.1 0.1 13.4 0.0999998 19.8 0.0999998ZM 1.1 1.4C 1.1 5.5 1.1 9.7 1.1 13.8C 7.2 13.8 13.3 13.8 19.4 13.8C 19.4 9.7 19.4 5.5 19.4 1.4C 13.3 1.4 7.2 1.4 1.1 1.4Z" fill="white"/>
<path d="M 19.8 0.0999998C 20 0.2 20.3 0.3 20.5 0.5C 20.7 0.7 20.8 1 20.8 1.2C 20.8 1.3 20.8 1.3 20.8 1.4C 20.8 5.5 20.8 9.7 20.8 13.8C 20.8 14.2 20.7 14.6 20.4 14.8C 20.2 15 20 15 19.8 15.1C 19.7 15.1 19.7 15.1 19.6 15.1C 13.5 15.1 7.3 15.1 1.2 15.1C 0.799998 15.1 0.399998 14.9 0.199998 14.6C 0.0999985 14.4 1.52588e-06 14.3 1.52588e-06 14.1C 1.52588e-06 9.8 1.52588e-06 5.4 1.52588e-06 1C 0.100002 0.8 0.199998 0.7 0.199998 0.5C 0.299998 0.3 0.600003 0.1 0.900003 3.8147e-07C 7.1 0.1 13.4 0.0999998 19.8 0.0999998ZM 1.1 1.4C 1.1 5.5 1.1 9.7 1.1 13.8C 7.2 13.8 13.3 13.8 19.4 13.8C 19.4 9.7 19.4 5.5 19.4 1.4C 13.3 1.4 7.2 1.4 1.1 1.4Z" stroke-miterlimit="10" stroke="white"/>
</g>
<path id="Vector_9" d="M 11.8 7.62939e-07L -1.52588e-06 7.62939e-07" transform="translate(107.1 51.6)" stroke-width="2" stroke-miterlimit="10" stroke="white"/>
<path id="Vector_10" d="M 3.36264 3.8147e-07C 4.66264 3.8147e-07 5.96264 3.8147e-07 7.26264 3.8147e-07C 7.26264 0.1 7.26264 0.0999992 7.26264 0.199999C 7.26264 0.799999 7.26264 1.4 7.26264 2C 7.26264 2.7 7.86265 3.2 8.56265 3.2C 8.96265 3.2 9.46264 3.2 9.86264 3.2C 10.3626 3.2 10.6626 3.7 10.4626 4.2C 10.3626 4.4 10.1626 4.5 9.96265 4.5C 9.96265 4.5 9.86264 4.5 9.76264 4.5C 6.76264 4.5 3.76264 4.5 0.762645 4.5C 0.462645 4.5 0.262648 4.4 0.0626477 4.1C -0.137352 3.7 0.162646 3.2 0.662646 3.2C 1.06265 3.2 1.46264 3.2 1.86264 3.2C 2.76264 3.2 3.26264 2.7 3.26264 1.8C 3.26264 1.3 3.26264 0.699999 3.26264 0.199999C 3.36264 0.0999992 3.36264 0.1 3.36264 3.8147e-07Z" transform="translate(107.837 47.5)" fill="white"/>
<path id="Vector_11" d="M 2.1 4.2C 3.2598 4.2 4.2 3.2598 4.2 2.1C 4.2 0.940204 3.2598 0 2.1 0C 0.940202 0 0 0.940204 0 2.1C 0 3.2598 0.940202 4.2 2.1 4.2Z" transform="translate(55.9 77.2)" fill="white"/>
<g id="Group_2">
<path id="Vector_12" d="M 3.8 3.8L 3.8 -7.62939e-07L -1.52588e-06 1.6L 3.8 3.8Z" transform="translate(109.6 80.7)" fill="white"/>
<path id="Vector_13" d="M 3.7 4.5L 3.7 0L -3.05176e-06 6.1L 3.7 4.5Z" transform="translate(109.7 75.9)" fill="white"/>
<path id="Vector_14" d="M -1.52588e-06 0L -1.52588e-06 4.5L 3.7 6.1L -1.52588e-06 0Z" transform="translate(113.6 75.9)" fill="white"/>
<path id="Vector_15" d="M -1.52588e-06 -7.62939e-07L -1.52588e-06 3.8L 3.8 1.6L -1.52588e-06 -7.62939e-07Z" transform="translate(113.6 80.7)" fill="white"/>
<path id="Vector_16" d="M 3.8 5.3L 3.8 2.2L -1.52588e-06 7.62939e-07L 3.8 5.3Z" transform="translate(109.6 83.1)" fill="white"/>
<path id="Vector_17" d="M -1.52588e-06 5.3L 3.8 7.62939e-07L -1.52588e-06 2.2L -1.52588e-06 5.3Z" transform="translate(113.6 83.1)" fill="white"/>
</g>
<path id="Vector_18" d="M 7.1 0.0999969C 7.1 0.499997 7.1 0.900001 7.1 1.3L 7 1.4L 6.9 1.4C 4.7 1.4 2.4 1.4 0.2 1.4C 0.1 1.4 0.0999996 1.4 -3.8147e-07 1.4C -3.8147e-07 0.9 -3.8147e-07 0.499998 -3.8147e-07 -1.52588e-06C 2.4 0.0999985 4.7 0.0999969 7.1 0.0999969Z" transform="translate(37.4 110)" fill="white"/>
<path id="Vector_19" d="M 7.1 0.0999969C 7.1 0.499997 7.1 0.900001 7.1 1.3L 7 1.4L 6.9 1.4C 4.7 1.4 2.4 1.4 0.2 1.4C 0.1 1.4 0.0999996 1.4 -3.8147e-07 1.4C -3.8147e-07 0.9 -3.8147e-07 0.499998 -3.8147e-07 -1.52588e-06C 2.4 0.0999985 4.7 0.0999969 7.1 0.0999969Z" transform="translate(37.4 104)" fill="white"/>
</g>
</g>
</g>
<defs>
<filter id="filter0_d" x="0" y="0" width="158" height="161.059" filterUnits="userSpaceOnUse" color-interpolation-filters="sRGB">
<feFlood flood-opacity="0" result="BackgroundImageFix"/>
<feColorMatrix in="SourceAlpha" type="matrix" values="0 0 0 0 0 0 0 0 0 0 0 0 0 0 0 0 0 0 255 0"/>
<feOffset dy="5"/>
<feGaussianBlur stdDeviation="2"/>
<feColorMatrix type="matrix" values="0 0 0 0 0.215686 0 0 0 0 0.576471 0 0 0 0 0.533333 0 0 0 0.5 0"/>
<feBlend mode="normal" in2="BackgroundImageFix" result="effect1_dropShadow"/>
<feBlend mode="normal" in="SourceGraphic" in2="effect1_dropShadow" result="shape"/>
</filter>
<linearGradient id="paint0_linear" x2="1" gradientUnits="userSpaceOnUse" gradientTransform="matrix(0 126.083 -124.375 0 137.188 25.9768)">
<stop stop-color="#4AC2C8"/>
<stop offset="1" stop-color="#352265"/>
</linearGradient>
</defs>
</svg>
